<svg width="75" height="77" viewBox="0 0 75 77" fill="none" xmlns="http://www.w3.org/2000/svg">
<path id="C ;" d="M35.936 50.936C36.192 50.936 36.448 50.9893 36.704 51.096C36.96 51.1813 37.2053 51.3413 37.44 51.576L41.728 56.088C39.8507 58.5413 37.4933 60.3973 34.656 61.656C31.84 62.8933 28.5013 63.512 24.64 63.512C21.0987 63.512 17.92 62.9147 15.104 61.72C12.3093 60.504 9.93067 58.84 7.968 56.728C6.02667 54.5947 4.53333 52.0773 3.488 49.176C2.44267 46.2533 1.92 43.0853 1.92 39.672C1.92 36.1947 2.48533 33.0053 3.616 30.104C4.74667 27.1813 6.336 24.664 8.384 22.552C10.432 20.44 12.8853 18.7973 15.744 17.624C18.6027 16.4507 21.7493 15.864 25.184 15.864C26.9333 15.864 28.576 16.024 30.112 16.344C31.6693 16.6427 33.12 17.0693 34.464 17.624C35.808 18.1573 37.0453 18.808 38.176 19.576C39.3067 20.344 40.3093 21.176 41.184 22.072L37.536 26.968C37.3013 27.2667 37.024 27.544 36.704 27.8C36.384 28.0347 35.936 28.152 35.36 28.152C34.976 28.152 34.6133 28.0667 34.272 27.896C33.9307 27.7253 33.568 27.5227 33.184 27.288C32.8 27.032 32.3733 26.7653 31.904 26.488C31.456 26.1893 30.912 25.9227 30.272 25.688C29.6533 25.432 28.9173 25.2187 28.064 25.048C27.232 24.8773 26.2507 24.792 25.12 24.792C23.328 24.792 21.6853 25.1227 20.192 25.784C18.72 26.4453 17.44 27.416 16.352 28.696C15.2853 29.9547 14.4533 31.512 13.856 33.368C13.28 35.2027 12.992 37.304 12.992 39.672C12.992 42.0613 13.312 44.184 13.952 46.04C14.6133 47.896 15.4987 49.464 16.608 50.744C17.7387 52.0027 19.0507 52.9627 20.544 53.624C22.0373 54.2853 23.6373 54.616 25.344 54.616C26.3253 54.616 27.2213 54.5733 28.032 54.488C28.8427 54.3813 29.6 54.2213 30.304 54.008C31.008 53.7733 31.6693 53.4747 32.288 53.112C32.9067 52.728 33.536 52.248 34.176 51.672C34.432 51.4587 34.7093 51.288 35.008 51.16C35.3067 51.0107 35.616 50.936 35.936 50.936ZM61.486 70.904C61.0167 70.52 60.782 70.0507 60.782 69.496C60.782 69.2827 60.8567 69.048 61.006 68.792C61.1553 68.5573 61.3367 68.344 61.55 68.152C61.806 67.896 62.1047 67.576 62.446 67.192C62.7873 66.8293 63.1287 66.424 63.47 65.976C63.8113 65.528 64.1207 65.0373 64.398 64.504C64.6967 63.9707 64.9207 63.4053 65.07 62.808C64.3447 62.744 63.6833 62.5627 63.086 62.264C62.4887 61.9653 61.9767 61.5813 61.55 61.112C61.1233 60.6213 60.7927 60.0667 60.558 59.448C60.3233 58.808 60.206 58.1147 60.206 57.368C60.206 56.6853 60.334 56.056 60.59 55.48C60.846 54.8827 61.2087 54.3707 61.678 53.944C62.1687 53.496 62.734 53.144 63.374 52.888C64.0353 52.632 64.7713 52.504 65.582 52.504C66.542 52.504 67.374 52.6747 68.078 53.016C68.782 53.336 69.3687 53.784 69.838 54.36C70.3073 54.9147 70.6487 55.5653 70.862 56.312C71.0967 57.0373 71.214 57.8053 71.214 58.616C71.214 59.6827 71.0433 60.824 70.702 62.04C70.3607 63.2347 69.8487 64.44 69.166 65.656C68.5047 66.872 67.6727 68.0667 66.67 69.24C65.6673 70.4133 64.5153 71.48 63.214 72.44L61.486 70.904ZM59.95 36.12C59.95 35.352 60.0887 34.6373 60.366 33.976C60.6647 33.3147 61.0593 32.7387 61.55 32.248C62.062 31.7573 62.6593 31.3733 63.342 31.096C64.0247 30.7973 64.7713 30.648 65.582 30.648C66.3713 30.648 67.1073 30.7973 67.79 31.096C68.4727 31.3733 69.07 31.7573 69.582 32.248C70.094 32.7387 70.4887 33.3147 70.766 33.976C71.0647 34.6373 71.214 35.352 71.214 36.12C71.214 36.888 71.0647 37.6133 70.766 38.296C70.4887 38.9573 70.094 39.5333 69.582 40.024C69.07 40.5147 68.4727 40.8987 67.79 41.176C67.1073 41.4533 66.3713 41.592 65.582 41.592C64.7713 41.592 64.0247 41.4533 63.342 41.176C62.6593 40.8987 62.062 40.5147 61.55 40.024C61.0593 39.5333 60.6647 38.9573 60.366 38.296C60.0887 37.6133 59.95 36.888 59.95 36.12Z" fill="white"/>
</svg>
